# xmcd
# 
# Track frame offsets:
#     150
#     12092
#     25342
#     38419
#     48276
#     79729
#     90622
#     102087
#     115610
#     127742
#     139861
#     146416
# 
# Disc length: 2068
# 
# Revision: 1
# Processed by: cddbd v1.5.2PL0 Copyright (c) Steve Scherf et al.
# Submitted via: fre:ac v1.0.27
# 
DISCID=8608120c
DTITLE=I'm Kingfisher - Arctic
DYEAR=2010
DGENRE=????
TTITLE0=Willing Night Plants
TTITLE1=Svalbard
TTITLE2=Feline Funeral
TTITLE3=Nansen
TTITLE4=Deer Theatre
TTITLE5=Peacook Color Song
TTITLE6=Smile With Your 1000 Teeth
TTITLE7=A Continent Lost
TTITLE8=Expedition
TTITLE9=Twin Sorrow
TTITLE10=Arctic Fox Too Majestic for the Tundra
TTITLE11=The Whale Hunt
EXTD=
EXTT0=
EXTT1=
EXTT2=
EXTT3=
EXTT4=
EXTT5=
EXTT6=
EXTT7=
EXTT8=
EXTT9=
EXTT10=
EXTT11=
PLAYORDER=
